<?xml version="1.0" encoding="UTF-8" standalone="no"?>
<!-- Created with Inkscape (http://www.inkscape.org/) -->

<svg
   xmlns:dc="http://purl.org/dc/elements/1.1/"
   xmlns:cc="http://creativecommons.org/ns#"
   xmlns:rdf="http://www.w3.org/1999/02/22-rdf-syntax-ns#"
   xmlns:svg="http://www.w3.org/2000/svg"
   xmlns="http://www.w3.org/2000/svg"
   xmlns:sodipodi="http://sodipodi.sourceforge.net/DTD/sodipodi-0.dtd"
   xmlns:inkscape="http://www.inkscape.org/namespaces/inkscape"
   id="svg2"
   version="1.1"
   inkscape:version="0.91 r"
   xml:space="preserve"
   width="48"
   height="48"
   viewBox="0 0 47.999999 47.999999"
   sodipodi:docname="Git-Icon-Black_v3.svg"><metadata
     id="metadata8"><rdf:RDF><cc:Work
         rdf:about=""><dc:format>image/svg+xml</dc:format><dc:type
           rdf:resource="http://purl.org/dc/dcmitype/StillImage" /><dc:title></dc:title></cc:Work></rdf:RDF></metadata><defs
     id="defs6" /><sodipodi:namedview
     pagecolor="#ffffff"
     bordercolor="#666666"
     borderopacity="1"
     objecttolerance="10"
     gridtolerance="10"
     guidetolerance="10"
     inkscape:pageopacity="0"
     inkscape:pageshadow="2"
     inkscape:window-width="1366"
     inkscape:window-height="715"
     id="namedview4"
     showgrid="true"
     inkscape:zoom="11.313709"
     inkscape:cx="36.717575"
     inkscape:cy="18.269951"
     inkscape:window-x="0"
     inkscape:window-y="26"
     inkscape:window-maximized="1"
     inkscape:current-layer="g10"
     inkscape:snap-bbox="true"
     inkscape:bbox-paths="true"
     inkscape:bbox-nodes="true"
     inkscape:snap-bbox-edge-midpoints="true"
     inkscape:snap-bbox-midpoints="true"
     inkscape:object-paths="true"
     inkscape:snap-intersection-paths="true"
     inkscape:object-nodes="true"
     inkscape:snap-smooth-nodes="true"
     showguides="true"
     inkscape:guide-bbox="true"
     inkscape:snap-midpoints="true"
     inkscape:snap-global="true"
     inkscape:snap-page="true"
     inkscape:snap-object-midpoints="true"
     inkscape:snap-center="true"
     inkscape:snap-nodes="false"><inkscape:grid
       type="xygrid"
       id="grid4646" /></sodipodi:namedview><g
     id="g10"
     inkscape:groupmode="layer"
     inkscape:label="Material Foreground"
     transform="matrix(1.25,0,0,-1.25,0,47.999997)"
     style="display:inline"><path
       style="fill:#f44336;fill-opacity:1;fill-rule:nonzero;stroke:none"
       d="m 4.5728339,20.615315 c -0.7643962,-0.765192 -0.7632986,-2.005348 0.0011,-2.769869 l 2.7577164,-2.757717 c -2.286182,2.291002 -2.2836418,6.000574 0.00552,8.289722 2.29064,2.290658 6.0035029,2.291763 8.2941419,0.0011 1.770227,-1.774187 2.226718,-4.460952 1.122532,-6.710885 l 1.760033,-1.760033 c 0.837868,0.288677 1.771669,0.08406 2.404163,-0.548007 0.909838,-0.909839 0.909837,-2.384838 0,-3.294676 -0.909839,-0.909838 -2.385942,-0.910944 -3.295781,-0.0011 -0.664894,0.666026 -0.863489,1.667087 -0.503813,2.536746 l -0.0033,-0.0033 -2.837239,2.839502 c 1.542653,1.542731 1.541549,4.044518 -0.0011,5.587248 -1.542671,1.542997 -4.043269,1.542795 -5.5861432,0 -1.5427945,-1.542873 -1.5429964,-4.043472 0,-5.586143 L 7.3360785,15.083313 17.847661,4.5739371 c 0.764158,-0.7644034 2.002376,-0.7655065 2.767661,-0.0011 L 33.826065,17.783575 c 0.764785,0.764656 0.765892,2.005447 0.0011,2.769871 L 20.554554,33.826061 c -0.764086,0.764461 -2.003714,0.764555 -2.768765,0 l -0.733623,-0.733624 -2.032932,-2.032932 9.819945,-9.819945 c 0.815437,0.281075 1.755028,0.09981 2.406373,-0.552427 0.909789,-0.909525 0.909788,-2.384389 0,-3.294675 -0.910452,-0.91032 -2.383827,-0.910319 -3.294676,-1e-6 -0.684265,0.68492 -0.854137,1.690304 -0.507128,2.533431 l -9.779066,9.779066 z"
       id="path3370"
       inkscape:connector-curvature="0"
       sodipodi:nodetypes="cccsccccsccccccccccccccccccccccc" /></g><g
     inkscape:groupmode="layer"
     id="layer3"
     inkscape:label="Color" /></svg>