<?xml version="1.0" encoding="UTF-8" standalone="no"?>
<!-- Created with Inkscape (http://www.inkscape.org/) -->

<svg
   xmlns:dc="http://purl.org/dc/elements/1.1/"
   xmlns:cc="http://creativecommons.org/ns#"
   xmlns:rdf="http://www.w3.org/1999/02/22-rdf-syntax-ns#"
   xmlns:svg="http://www.w3.org/2000/svg"
   xmlns="http://www.w3.org/2000/svg"
   xmlns:sodipodi="http://sodipodi.sourceforge.net/DTD/sodipodi-0.dtd"
   xmlns:inkscape="http://www.inkscape.org/namespaces/inkscape"
   id="svg2"
   version="1.1"
   inkscape:version="0.91 r"
   xml:space="preserve"
   width="48"
   height="48"
   viewBox="0 0 47.999999 47.999999"
   sodipodi:docname="Git-Icon-Black_v2.svg"><metadata
     id="metadata8"><rdf:RDF><cc:Work
         rdf:about=""><dc:format>image/svg+xml</dc:format><dc:type
           rdf:resource="http://purl.org/dc/dcmitype/StillImage" /><dc:title></dc:title></cc:Work></rdf:RDF></metadata><defs
     id="defs6" /><sodipodi:namedview
     pagecolor="#ffffff"
     bordercolor="#666666"
     borderopacity="1"
     objecttolerance="10"
     gridtolerance="10"
     guidetolerance="10"
     inkscape:pageopacity="0"
     inkscape:pageshadow="2"
     inkscape:window-width="1366"
     inkscape:window-height="715"
     id="namedview4"
     showgrid="true"
     inkscape:zoom="11.333333"
     inkscape:cx="24"
     inkscape:cy="24"
     inkscape:window-x="0"
     inkscape:window-y="26"
     inkscape:window-maximized="1"
     inkscape:current-layer="g10"
     inkscape:snap-bbox="true"
     inkscape:bbox-paths="true"
     inkscape:bbox-nodes="true"
     inkscape:snap-bbox-edge-midpoints="true"
     inkscape:snap-bbox-midpoints="true"
     inkscape:object-paths="true"
     inkscape:snap-intersection-paths="true"
     inkscape:object-nodes="true"
     inkscape:snap-smooth-nodes="true"
     showguides="true"
     inkscape:guide-bbox="true"
     inkscape:snap-midpoints="true"
     inkscape:snap-global="true"
     inkscape:snap-page="true"
     inkscape:snap-object-midpoints="true"
     inkscape:snap-center="true"
     inkscape:snap-nodes="false"><inkscape:grid
       type="xygrid"
       id="grid4646" /></sodipodi:namedview><g
     id="g10"
     inkscape:groupmode="layer"
     inkscape:label="Material Foreground"
     transform="matrix(1.25,0,0,-1.25,0,47.999997)"
     style="display:inline"><g
       id="g4641"
       transform="matrix(0.23393415,0.23393415,-0.23393415,0.23393415,19.199712,-2.2961444)"><path
         id="path3370"
         d="m 17.707955,80.231157 c -3.269271,-0.0017 -5.920061,-2.652459 -5.920314,-5.920313 l 0.0031,-56.735937 c -5.25e-4,-3.267077 2.647706,-5.916871 5.917185,-5.918754 l 56.471877,3e-6 c 3.268956,-2.8e-4 5.92109,2.650291 5.92031,5.918754 l -0.0016,56.735934 c 8.01e-4,3.267046 -2.647881,5.91769 -5.917192,5.918748 l -3.134373,2e-6 -14.435937,0 z"
         style="fill:#f44336;fill-opacity:1;fill-rule:nonzero;stroke:none"
         inkscape:connector-curvature="0" /><path
         sodipodi:nodetypes="cccccccc"
         inkscape:connector-curvature="0"
         id="path14"
         d="m 56.567328,80.229596 5.789063,0 10e-7,-41.978126 c 2.343634,-1.142121 3.965971,-3.54035 3.964062,-6.326563 5.65e-4,-3.888522 -3.15204,-7.039565 -7.042184,-7.040629 -3.891633,2.83e-4 -7.041056,3.151269 -7.042191,7.043746 0.0014,2.926433 1.787503,5.438059 4.331249,6.498438 z"
         style="fill:#ffffff;fill-opacity:1;fill-rule:nonzero;stroke:none" /><path
         sodipodi:nodetypes="sccccccccscccccs"
         inkscape:connector-curvature="0"
         id="path14-4"
         transform="matrix(0.8,0,0,-0.8,0,91.89)"
         d="M 36.896484,14.574219 C 24.656669,14.57417 14.734326,24.496513 14.734375,36.736328 l 7.236328,0 c -8.69e-4,-8.243957 6.681824,-14.927524 14.925781,-14.927734 8.243957,2.09e-4 14.926651,6.683777 14.925782,14.927734 -2.1e-4,8.243195 -6.682587,14.925572 -14.925782,14.925781 l -0.0039,15.166016 0.01758,0 c -3.284403,1.362519 -5.426535,4.567241 -5.429687,8.123047 0,4.861616 3.941118,8.802734 8.802734,8.802734 4.861616,10e-7 8.802735,-3.941118 8.802735,-8.802734 -0.0012,-3.552961 -2.138161,-6.756888 -5.417969,-8.123047 l 0.460937,0.275275 0,-9.443244 C 53.090086,54.599074 59.047944,46.205914 59.058594,36.736328 59.058643,24.496512 49.1363,14.574169 36.896484,14.574219 Z"
         style="fill:#ffffff;fill-opacity:1;fill-rule:nonzero;stroke:none" /></g></g><g
     inkscape:groupmode="layer"
     id="layer3"
     inkscape:label="Color" /></svg>