<?xml version="1.0" encoding="UTF-8" standalone="no"?>
<!-- Created with Inkscape (http://www.inkscape.org/) -->

<svg
   xmlns:dc="http://purl.org/dc/elements/1.1/"
   xmlns:cc="http://creativecommons.org/ns#"
   xmlns:rdf="http://www.w3.org/1999/02/22-rdf-syntax-ns#"
   xmlns:svg="http://www.w3.org/2000/svg"
   xmlns="http://www.w3.org/2000/svg"
   xmlns:sodipodi="http://sodipodi.sourceforge.net/DTD/sodipodi-0.dtd"
   xmlns:inkscape="http://www.inkscape.org/namespaces/inkscape"
   id="svg2"
   version="1.1"
   inkscape:version="0.91 r"
   xml:space="preserve"
   width="114.8625"
   height="114.8625"
   viewBox="0 0 114.8625 114.8625"
   sodipodi:docname="Git-Icon-Black.svg"><metadata
     id="metadata8"><rdf:RDF><cc:Work
         rdf:about=""><dc:format>image/svg+xml</dc:format><dc:type
           rdf:resource="http://purl.org/dc/dcmitype/StillImage" /><dc:title></dc:title></cc:Work></rdf:RDF></metadata><defs
     id="defs6" /><sodipodi:namedview
     pagecolor="#ffffff"
     bordercolor="#666666"
     borderopacity="1"
     objecttolerance="10"
     gridtolerance="10"
     guidetolerance="10"
     inkscape:pageopacity="0"
     inkscape:pageshadow="2"
     inkscape:window-width="1366"
     inkscape:window-height="715"
     id="namedview4"
     showgrid="false"
     inkscape:zoom="4.7360974"
     inkscape:cx="57.431252"
     inkscape:cy="57.431252"
     inkscape:window-x="0"
     inkscape:window-y="26"
     inkscape:window-maximized="1"
     inkscape:current-layer="g10"
     inkscape:snap-bbox="true"
     inkscape:bbox-paths="true"
     inkscape:bbox-nodes="true"
     inkscape:snap-bbox-edge-midpoints="true"
     inkscape:snap-bbox-midpoints="true"
     inkscape:object-paths="true"
     inkscape:snap-intersection-paths="true"
     inkscape:object-nodes="true"
     inkscape:snap-smooth-nodes="true"
     showguides="false"
     inkscape:guide-bbox="true"><sodipodi:guide
       position="36.892577,92.846876"
       orientation="0,1"
       id="guide3382" /><sodipodi:guide
       position="74.097656,31.10469"
       orientation="0,1"
       id="guide3392" /><sodipodi:guide
       position="37.548828,38.54219"
       orientation="1,0"
       id="guide3394" /></sodipodi:namedview><g
     id="g10"
     inkscape:groupmode="layer"
     inkscape:label="ink_ext_XXXXXX"
     transform="matrix(1.25,0,0,-1.25,0,114.8625)"><path
       inkscape:connector-curvature="0"
       style="fill:#f44336;fill-opacity:1;fill-rule:nonzero;stroke:none"
       d="m 1.7329997,50.222235 c -2.31052087,-2.312926 -2.3105435,-6.061687 -7e-7,-8.372587 L 41.853557,1.7334739 c 2.309801,-2.31054422 6.056071,-2.31164872 8.369273,-0.00111 L 90.154475,41.664014 c 2.311699,2.311303 2.312804,6.060881 0.0011,8.371482 L 50.036082,90.152731 c -2.309584,2.310716 -6.056773,2.312104 -8.369273,0.0011 L 39.450471,87.937496 29.242722,77.729747 Z"
       id="path3370" /><path
       style="fill:#ffffff;fill-opacity:1;fill-rule:nonzero;stroke:none"
       d="m 29.21183,77.698858 4.093486,4.093485 29.683018,-29.683017 c 2.464801,0.849599 5.307771,0.30096 7.276571,-1.67054 2.75,-2.749201 2.748895,-7.206553 -0.0011,-9.958053 -2.752,-2.7516 -7.207062,-2.750494 -9.960262,0.0011 -2.06831,2.07029 -2.581332,5.109244 -1.532434,7.657745 z"
       id="path14"
       inkscape:connector-curvature="0"
       sodipodi:nodetypes="cccccccc" /><path
       inkscape:connector-curvature="0"
       style="fill:#ffffff;fill-opacity:1;fill-rule:nonzero;stroke:none"
       d="m 8.5355874,57.024822 a 15.54022,15.54022 0 0 1 0,-21.977762 l 4.0691786,4.069178 a 9.7856079,9.7856079 0 0 0 0,13.839406 9.7856079,9.7856079 0 0 0 13.839405,0 9.7856079,9.7856079 0 0 0 -0.0011,-13.838301 l 2.057239,-2.057239 2.01194,-2.011939 7.58372,-7.583721 c -1.048898,-2.5485 -0.535877,-5.587454 1.532433,-7.657745 2.753192,-2.751607 7.208262,-2.752705 9.960262,-0.0011 2.750014,2.751486 2.751105,7.208852 0.0011,9.958052 -1.968792,1.971508 -4.811769,2.52014 -7.27657,1.67054 l -8.507378,8.507378 a 15.54022,15.54022 0 0 1 -3.292466,17.083259 15.54022,15.54022 0 0 1 -21.9777626,-10e-7 z"
       id="path3372" /></g></svg>